<?xml version="1.0" encoding="iso-8859-1"?>
<!-- Generator: Adobe Illustrator 19.0.0, SVG Export Plug-In . SVG Version: 6.00 Build 0) -->
<svg version="1.1" id="Capa_1" xmlns="http://www.w3.org/2000/svg" xmlns:xlink="http://www.w3.org/1999/xlink" x="0px" y="0px" viewBox="0 0 511.999 511.999" style="enable-background:new 0 0 511.999 511.999;" xml:space="preserve">
	<path style="fill:#0091BF;" d="M501.535,173.915l-15.006-23.711l-11.105,25.811c-8.104,18.309-19.809,25.812-29.113,32.114
	c-11.105,7.503-11.504,7.803-23.81,22.51c-7.503,9.304-19.807,24.31-26.411,28.512c-0.899-1.501-2.101-4.202-3.301-8.703
	c-1.199-4.503-4.801-18.308-17.107-22.209c-13.206-4.202-24.31,4.801-34.215,12.905c-2.4,2.101-3.902,1.2-4.201,0.599
	c-1.801-1.2-2.702-3.9-0.901-8.703c0.601-1.501,1.501-3.301,2.402-5.101l9.304-18.009l-14.405-6.302
	c-6.604-3.002-17.408-6.304-33.914-9.905l-43.82-7.803l-49.221-8.703c-38.415-6.304-79.233-12.604-117.349-18.009l-67.228-10.203
	l-2.402,14.706c-3.301,18.308-6.302,34.814-9.304,49.82c-22.808,121.252-22.51,150.465,153.365,229.398
	c36.015,15.906,44.12,25.811,52.222,35.114c18.309,21.31,26.111,21.608,39.918,30.914c0.3,0.298,0.901,0.899,1.501,1.199
	c12.306-42.319,11.705-44.12,12.306-45.019c54.023-11.405,42.918-8.703,65.728-14.405c37.814-9.304,37.814-9.304,73.53,41.416
	l14.107,19.809l11.405-21.009c9.604-17.408,10.503-34.215,3-51.621c-10.203-24.31-3.5-33.914,5.803-49.522
	c8.403-13.807,18.608-32.213,18.608-60.425c-0.3-25.212,7.503-44.42,24.01-58.525c7.203-6.304,11.105-16.807,16.206-32.114
	c1.801-5.101,3.302-10.205,4.803-13.206C515.039,209.029,513.539,192.222,501.535,173.915z" />
	<path style="fill:#007A9F;" d="M506.937,225.536c-1.501,3-3.002,8.104-4.803,13.206c-5.101,15.306-9.004,25.811-16.206,32.114
	c-16.507,14.105-24.31,33.314-24.01,58.525c0,28.212-10.205,46.619-18.608,60.425c-9.304,15.608-16.007,25.212-5.803,49.522
	c7.503,17.406,6.604,34.214-3,51.621l-11.405,21.009l-14.107-19.809c-35.715-50.719-35.715-50.719-73.53-41.416
	c-22.81,5.702-11.705,3-65.728,14.405c-0.601,0.899,0,2.7-12.306,45.019c-0.599-0.3-1.199-0.901-1.501-1.199V185.919l43.82,7.803
	c16.507,3.602,27.311,6.902,33.914,9.905l14.405,6.302l-9.304,18.009c-0.901,1.801-1.801,3.602-2.402,5.101
	c-1.801,4.803-0.899,7.503,0.901,8.703c0.298,0.601,1.801,1.502,4.201-0.599c9.905-8.104,21.009-17.107,34.215-12.905
	c12.306,3.902,15.908,17.706,17.107,22.209c1.2,4.501,2.402,7.203,3.301,8.703c6.604-4.202,18.908-19.208,26.411-28.512
	c12.306-14.706,12.705-15.006,23.81-22.51c9.304-6.302,21.009-13.805,29.113-32.114l11.105-25.811l15.006,23.711
	C513.539,192.222,515.039,209.029,506.937,225.536z" />
	<path d="M475.285,175.901l11.387,4.997L475.285,175.901z" />
	<path style="fill:#FF4949;" d="M255.93,0.041c-57.925,0-105.045,48.12-105.045,106.045c0,34.215,13.206,53.422,39.617,92.139
	c13.807,20.108,30.912,44.719,52.522,80.734l12.905,21.308l12.905-21.308c21.61-35.715,38.715-60.627,52.222-80.436
	c26.711-38.715,39.918-58.223,39.918-92.438C360.975,48.161,313.855,0.041,255.93,0.041z M255.93,151.105
	c-24.912,0-45.019-20.11-45.019-45.019c0-24.912,20.108-46.02,45.019-46.02s45.019,21.108,45.019,46.02
	C300.949,130.995,280.841,151.105,255.93,151.105z" />
	<path style="fill:#FF193D;" d="M360.975,106.086c0,34.215-13.206,53.722-39.918,92.438c-13.506,19.809-30.612,44.721-52.222,80.436
	l-12.905,21.308V151.105c24.911,0,45.019-20.11,45.019-45.019c0-24.912-20.108-46.02-45.019-46.02V0.041
	C313.855,0.041,360.975,48.161,360.975,106.086z" />
	<g>
	</g>
	<g>
	</g>
	<g>
	</g>
	<g>
	</g>
	<g>
	</g>
	<g>
	</g>
	<g>
	</g>
	<g>
	</g>
	<g>
	</g>
	<g>
	</g>
	<g>
	</g>
	<g>
	</g>
	<g>
	</g>
	<g>
	</g>
	<g>
	</g>
</svg>
