<svg height="512" viewBox="0 0 512 512" width="512" xmlns="http://www.w3.org/2000/svg" xmlns:xlink="http://www.w3.org/1999/xlink">
	<linearGradient id="New_Gradient_Swatch_12" gradientUnits="userSpaceOnUse" x1="77.809" x2="434.191" y1="434.191" y2="77.809">
		<stop offset=".011" stop-color="#80d1cb" />
		<stop offset="1" stop-color="#bfe8e5" />
	</linearGradient>
	<linearGradient id="New_Gradient_Swatch_18" gradientUnits="userSpaceOnUse" x1="80.914" x2="394.936" y1="431.131" y2="117.109">
		<stop offset=".015" stop-color="#83839e" />
		<stop offset="1" stop-color="#b8b8c7" />
	</linearGradient>
	<linearGradient id="New_Gradient_Swatch_18-2" x1="173.149" x2="487.171" xlink:href="#New_Gradient_Swatch_18" y1="523.367" y2="209.344" />
	<linearGradient id="New_Gradient_Swatch_18-3" x1="43.45" x2="357.472" xlink:href="#New_Gradient_Swatch_18" y1="393.667" y2="79.645" />
	<linearGradient id="New_Gradient_Swatch_13" gradientUnits="userSpaceOnUse" x1="31.432" x2="152.568" y1="178.966" y2="57.83">
		<stop offset="0" stop-color="#d46669" />
		<stop offset="1" stop-color="#dd888a" />
	</linearGradient>
	<linearGradient id="New_Gradient_Swatch_22" gradientUnits="userSpaceOnUse" x1="63.729" x2="120.271" y1="144.271" y2="87.729">
		<stop offset=".011" stop-color="#dcdce3" />
		<stop offset="1" stop-color="#ededf1" />
	</linearGradient>
	<linearGradient id="New_Gradient_Swatch_13-2" x1="351.432" x2="472.568" xlink:href="#New_Gradient_Swatch_13" y1="154.966" y2="33.83" />
	<linearGradient id="New_Gradient_Swatch_22-2" x1="383.729" x2="440.271" xlink:href="#New_Gradient_Swatch_22" y1="120.271" y2="63.729" />
	<linearGradient id="New_Gradient_Swatch_13-3" x1="266.41" x2="387.546" xlink:href="#New_Gradient_Swatch_13" y1="364.943" y2="243.807" />
	<linearGradient id="New_Gradient_Swatch_22-3" x1="298.707" x2="355.249" xlink:href="#New_Gradient_Swatch_22" y1="330.249" y2="273.707" />
	<g id="_15-globe" data-name="15-globe">
		<g id="gradient">
			<path transform="scale(-1, 1) translate(-512, 0)" d="m434.191 77.809a252 252 0 0 0 -356.382 356.382 252 252 0 0 0 356.382-356.382z" fill="url(#New_Gradient_Swatch_12)" />
			<path transform="scale(-1, 1) translate(-512, 0)" d="m442.354 348.233-75.714-15.143-29.27-36.59a12.007 12.007 0 0 0 -3.869-3.169l-47.5-24.5a12.017 12.017 0 0 0 -3.667-1.194l-45.881-7.094-41.66-27.774-5.067-25.337 25.728-10.292 27.181 13.59a12 12 0 0 0 14.585-3.051l38.392-46.072 77.755-38.877a11.983 11.983 0 0 0 3.119-2.248l50.024-50.022a251.964 251.964 0 0 0 -344.983 3.72l12.661 6.33 4.856 14.569-13.777 27.554a11.982 11.982 0 0 0 -.909 2.456l-8 32a12 12 0 0 0 1.352 9.085l23.081 38.469 15.567 62.268a12 12 0 0 0 4.442 6.689l32 24a11.954 11.954 0 0 0 1.834 1.133l71.8 35.9-6.2 31.012a12.007 12.007 0 0 0 -.234 2.355v40a12 12 0 0 0 6.634 10.733l41.366 20.684v40.583a11.976 11.976 0 0 0 .462 3.3l6.85 23.973a250.113 250.113 0 0 0 158.879-73.079 254.608 254.608 0 0 0 30.775-37.238l-13.582-40.748a12 12 0 0 0 -9.03-7.975z" fill="url(#New_Gradient_Swatch_18)" />
			<path transform="scale(-1, 1) translate(-512, 0)" d="m457.85 105.075-40.825 29.16a12.02 12.02 0 0 0 -3.758 4.4l-14.211 28.423-28.422 14.211a12 12 0 0 0 -6.561 12.058l8 72a12.006 12.006 0 0 0 2.327 5.873l24 32a12 12 0 0 0 7.627 4.637l44.207 7.368 38.282 38.282a252.722 252.722 0 0 0 -30.666-248.412z" fill="url(#New_Gradient_Swatch_18-2)" />
			<path transform="scale(-1, 1) translate(-512, 0)" d="m186.29 381.274a12 12 0 0 0 -1.8-14.659l-24-24a12 12 0 0 0 -6.512-3.351c-15.962-2.66-32.773-6.938-38.929-9.787-1.975-5.847-8.023-16.327-26.559-34.862a11.99 11.99 0 0 0 -5.575-3.156l-28.478-7.12-49.149-53.99a256.485 256.485 0 0 0 -1.288 25.651 252.575 252.575 0 0 0 148.637 229.96l10.838-66.66z" fill="url(#New_Gradient_Swatch_18-3)" />
			<path transform="scale(-1, 1) translate(-512, 0)" d="m92 32a84.1 84.1 0 0 0 -84 84c0 22.962 13.148 49.214 39.08 78.027a323.227 323.227 0 0 0 37.553 35.445 12 12 0 0 0 14.734 0 323.227 323.227 0 0 0 37.553-35.445c25.932-28.813 39.08-55.065 39.08-78.027a84.1 84.1 0 0 0 -84-84z" fill="url(#New_Gradient_Swatch_13)" />
			<circle transform="scale(-1, 1) translate(-512, 0)" cx="92" cy="116" fill="url(#New_Gradient_Swatch_22)" r="40" />
			<path transform="scale(-1, 1) translate(-512, 0)" d="m412 8a84.1 84.1 0 0 0 -84 84c0 22.962 13.148 49.214 39.08 78.027a323.227 323.227 0 0 0 37.553 35.445 12 12 0 0 0 14.734 0 323.227 323.227 0 0 0 37.553-35.445c25.932-28.813 39.08-55.065 39.08-78.027a84.1 84.1 0 0 0 -84-84z" fill="url(#New_Gradient_Swatch_13-2)" />
			<circle transform="scale(-1, 1) translate(-512, 0)" cx="412" cy="92" fill="url(#New_Gradient_Swatch_22-2)" r="40" />
			<path transform="scale(-1, 1) translate(-512, 0)" d="m326.978 217.978a84.1 84.1 0 0 0 -84 84c0 22.961 13.148 49.214 39.08 78.027a323.459 323.459 0 0 0 37.552 35.445 12 12 0 0 0 14.735 0 323.459 323.459 0 0 0 37.555-35.445c25.932-28.813 39.081-55.066 39.081-78.027a84.1 84.1 0 0 0 -84.003-84z" fill="url(#New_Gradient_Swatch_13-3)" />
			<circle transform="scale(-1, 1) translate(-512, 0)" cx="326.978" cy="301.978" fill="url(#New_Gradient_Swatch_22-3)" r="40" />
		</g>
	</g>
</svg>
